<svg xmlns="http://www.w3.org/2000/svg" viewBox="0 0 1280 720">
  <!-- Medium Distance Buildings (Midground) -->
  <rect width="1600" height="900" fill="#0a0a0e" opacity="0.1" />
  
  <!-- Building 1 -->
  <rect x="50" y="400" width="220" height="500" fill="#181830" />
  <rect x="70" y="420" width="45" height="65" fill="#262640" />
  <rect x="135" y="420" width="45" height="65" fill="#1e90ff" opacity="0.4" />
  <rect x="200" y="420" width="45" height="65" fill="#262640" />
  <rect x="70" y="505" width="45" height="65" fill="#1e90ff" opacity="0.3" />
  <rect x="135" y="505" width="45" height="65" fill="#262640" />
  <rect x="200" y="505" width="45" height="65" fill="#262640" />
  <rect x="70" y="590" width="45" height="65" fill="#262640" />
  <rect x="135" y="590" width="45" height="65" fill="#1e90ff" opacity="0.4" />
  <rect x="200" y="590" width="45" height="65" fill="#262640" />
  <rect x="70" y="675" width="45" height="65" fill="#262640" />
  <rect x="135" y="675" width="45" height="65" fill="#262640" />
  <rect x="200" y="675" width="45" height="65" fill="#1e90ff" opacity="0.3" />
  <rect x="70" y="760" width="45" height="65" fill="#1e90ff" opacity="0.4" />
  <rect x="135" y="760" width="45" height="65" fill="#262640" />
  <rect x="200" y="760" width="45" height="65" fill="#262640" />
  
  <!-- Building 2 -->
  <rect x="290" y="300" width="180" height="600" fill="#1c1c36" />
  <rect x="310" y="320" width="40" height="55" fill="#262640" />
  <rect x="365" y="320" width="40" height="55" fill="#1e90ff" opacity="0.3" />
  <rect x="420" y="320" width="40" height="55" fill="#262640" />
  <rect x="310" y="395" width="40" height="55" fill="#1e90ff" opacity="0.4" />
  <rect x="365" y="395" width="40" height="55" fill="#262640" />
  <rect x="420" y="395" width="40" height="55" fill="#262640" />
  <rect x="310" y="470" width="40" height="55" fill="#262640" />
  <rect x="365" y="470" width="40" height="55" fill="#1e90ff" opacity="0.3" />
  <rect x="420" y="470" width="40" height="55" fill="#262640" />
  <rect x="310" y="545" width="40" height="55" fill="#262640" />
  <rect x="365" y="545" width="40" height="55" fill="#262640" />
  <rect x="420" y="545" width="40" height="55" fill="#1e90ff" opacity="0.4" />
  <rect x="310" y="620" width="40" height="55" fill="#1e90ff" opacity="0.3" />
  <rect x="365" y="620" width="40" height="55" fill="#262640" />
  <rect x="420" y="620" width="40" height="55" fill="#262640" />
  <rect x="310" y="695" width="40" height="55" fill="#262640" />
  <rect x="365" y="695" width="40" height="55" fill="#1e90ff" opacity="0.4" />
  <rect x="420" y="695" width="40" height="55" fill="#262640" />
  <rect x="310" y="770" width="40" height="55" fill="#262640" />
  <rect x="365" y="770" width="40" height="55" fill="#262640" />
  <rect x="420" y="770" width="40" height="55" fill="#1e90ff" opacity="0.3" />
  
  <!-- Building 3 (Tall) -->
  <rect x="490" y="150" width="160" height="750" fill="#161630" />
  <rect x="510" y="170" width="35" height="45" fill="#1e90ff" opacity="0.4" />
  <rect x="560" y="170" width="35" height="45" fill="#262640" />
  <rect x="610" y="170" width="35" height="45" fill="#262640" />
  <rect x="510" y="235" width="35" height="45" fill="#262640" />
  <rect x="560" y="235" width="35" height="45" fill="#1e90ff" opacity="0.3" />
  <rect x="610" y="235" width="35" height="45" fill="#262640" />
  <rect x="510" y="300" width="35" height="45" fill="#262640" />
  <rect x="560" y="300" width="35" height="45" fill="#262640" />
  <rect x="610" y="300" width="35" height="45" fill="#1e90ff" opacity="0.4" />
  <rect x="510" y="365" width="35" height="45" fill="#1e90ff" opacity="0.3" />
  <rect x="560" y="365" width="35" height="45" fill="#262640" />
  <rect x="610" y="365" width="35" height="45" fill="#262640" />
  <rect x="510" y="430" width="35" height="45" fill="#262640" />
  <rect x="560" y="430" width="35" height="45" fill="#1e90ff" opacity="0.4" />
  <rect x="610" y="430" width="35" height="45" fill="#262640" />
  <rect x="510" y="495" width="35" height="45" fill="#262640" />
  <rect x="560" y="495" width="35" height="45" fill="#262640" />
  <rect x="610" y="495" width="35" height="45" fill="#1e90ff" opacity="0.3" />
  <rect x="510" y="560" width="35" height="45" fill="#1e90ff" opacity="0.4" />
  <rect x="560" y="560" width="35" height="45" fill="#262640" />
  <rect x="610" y="560" width="35" height="45" fill="#262640" />
  <rect x="510" y="625" width="35" height="45" fill="#262640" />
  <rect x="560" y="625" width="35" height="45" fill="#1e90ff" opacity="0.3" />
  <rect x="610" y="625" width="35" height="45" fill="#262640" />
  <rect x="510" y="690" width="35" height="45" fill="#262640" />
  <rect x="560" y="690" width="35" height="45" fill="#262640" />
  <rect x="610" y="690" width="35" height="45" fill="#1e90ff" opacity="0.4" />
  <rect x="510" y="755" width="35" height="45" fill="#1e90ff" opacity="0.3" />
  <rect x="560" y="755" width="35" height="45" fill="#262640" />
  <rect x="610" y="755" width="35" height="45" fill="#262640" />
  
  <!-- Building 4 -->
  <rect x="670" y="250" width="200" height="650" fill="#1a1a34" />
  <rect x="690" y="270" width="42" height="60" fill="#262640" />
  <rect x="752" y="270" width="42" height="60" fill="#1e90ff" opacity="0.4" />
  <rect x="810" y="270" width="42" height="60" fill="#262640" />
  <rect x="690" y="350" width="42" height="60" fill="#1e90ff" opacity="0.3" />
  <rect x="752" y="350" width="42" height="60" fill="#262640" />
  <rect x="810" y="350" width="42" height="60" fill="#262640" />
  <rect x="690" y="430" width="42" height="60" fill="#262640" />
  <rect x="752" y="430" width="42" height="60" fill="#1e90ff" opacity="0.4" />
  <rect x="810" y="430" width="42" height="60" fill="#262640" />
  <rect x="690" y="510" width="42" height="60" fill="#262640" />
  <rect x="752" y="510" width="42" height="60" fill="#262640" />
  <rect x="810" y="510" width="42" height="60" fill="#1e90ff" opacity="0.3" />
  <rect x="690" y="590" width="42" height="60" fill="#1e90ff" opacity="0.4" />
  <rect x="752" y="590" width="42" height="60" fill="#262640" />
  <rect x="810" y="590" width="42" height="60" fill="#262640" />
  <rect x="690" y="670" width="42" height="60" fill="#262640" />
  <rect x="752" y="670" width="42" height="60" fill="#1e90ff" opacity="0.3" />
  <rect x="810" y="670" width="42" height="60" fill="#262640" />
  <rect x="690" y="750" width="42" height="60" fill="#262640" />
  <rect x="752" y="750" width="42" height="60" fill="#262640" />
  <rect x="810" y="750" width="42" height="60" fill="#1e90ff" opacity="0.4" />
  
  <!-- Building 5 -->
  <rect x="890" y="350" width="170" height="550" fill="#141428" />
  <rect x="910" y="370" width="38" height="53" fill="#1e90ff" opacity="0.3" />
  <rect x="965" y="370" width="38" height="53" fill="#262640" />
  <rect x="1020" y="370" width="38" height="53" fill="#262640" />
  <rect x="910" y="443" width="38" height="53" fill="#262640" />
  <rect x="965" y="443" width="38" height="53" fill="#1e90ff" opacity="0.4" />
  <rect x="1020" y="443" width="38" height="53" fill="#262640" />
  <rect x="910" y="516" width="38" height="53" fill="#262640" />
  <rect x="965" y="516" width="38" height="53" fill="#262640" />
  <rect x="1020" y="516" width="38" height="53" fill="#1e90ff" opacity="0.3" />
  <rect x="910" y="589" width="38" height="53" fill="#1e90ff" opacity="0.4" />
  <rect x="965" y="589" width="38" height="53" fill="#262640" />
  <rect x="1020" y="589" width="38" height="53" fill="#262640" />
  <rect x="910" y="662" width="38" height="53" fill="#262640" />
  <rect x="965" y="662" width="38" height="53" fill="#1e90ff" opacity="0.3" />
  <rect x="1020" y="662" width="38" height="53" fill="#262640" />
  <rect x="910" y="735" width="38" height="53" fill="#262640" />
  <rect x="965" y="735" width="38" height="53" fill="#262640" />
  <rect x="1020" y="735" width="38" height="53" fill="#1e90ff" opacity="0.4" />
  
  <!-- Building 6 -->
  <rect x="1080" y="200" width="210" height="700" fill="#1d1d3a" />
  <rect x="1100" y="220" width="45" height="65" fill="#262640" />
  <rect x="1165" y="220" width="45" height="65" fill="#1e90ff" opacity="0.4" />
  <rect x="1230" y="220" width="45" height="65" fill="#262640" />
  <rect x="1100" y="305" width="45" height="65" fill="#1e90ff" opacity="0.3" />
  <rect x="1165" y="305" width="45" height="65" fill="#262640" />
  <rect x="1230" y="305" width="45" height="65" fill="#262640" />
  <rect x="1100" y="390" width="45" height="65" fill="#262640" />
  <rect x="1165" y="390" width="45" height="65" fill="#1e90ff" opacity="0.4" />
  <rect x="1230" y="390" width="45" height="65" fill="#262640" />
  <rect x="1100" y="475" width="45" height="65" fill="#262640" />
  <rect x="1165" y="475" width="45" height="65" fill="#262640" />
  <rect x="1230" y="475" width="45" height="65" fill="#1e90ff" opacity="0.3" />
  <rect x="1100" y="560" width="45" height="65" fill="#1e90ff" opacity="0.4" />
  <rect x="1165" y="560" width="45" height="65" fill="#262640" />
  <rect x="1230" y="560" width="45" height="65" fill="#262640" />
  <rect x="1100" y="645" width="45" height="65" fill="#262640" />
  <rect x="1165" y="645" width="45" height="65" fill="#1e90ff" opacity="0.3" />
  <rect x="1230" y="645" width="45" height="65" fill="#262640" />
  <rect x="1100" y="730" width="45" height="65" fill="#262640" />
  <rect x="1165" y="730" width="45" height="65" fill="#262640" />
  <rect x="1230" y="730" width="45" height="65" fill="#1e90ff" opacity="0.4" />
  
  <!-- Building 7 -->
  <rect x="1310" y="280" width="150" height="620" fill="#191938" />
  <rect x="1330" y="300" width="33" height="48" fill="#1e90ff" opacity="0.3" />
  <rect x="1378" y="300" width="33" height="48" fill="#262640" />
  <rect x="1426" y="300" width="33" height="48" fill="#262640" />
  <rect x="1330" y="368" width="33" height="48" fill="#262640" />
  <rect x="1378" y="368" width="33" height="48" fill="#1e90ff" opacity="0.4" />
  <rect x="1426" y="368" width="33" height="48" fill="#262640" />
  <rect x="1330" y="436" width="33" height="48" fill="#262640" />
  <rect x="1378" y="436" width="33" height="48" fill="#262640" />
  <rect x="1426" y="436" width="33" height="48" fill="#1e90ff" opacity="0.3" />
  <rect x="1330" y="504" width="33" height="48" fill="#1e90ff" opacity="0.4" />
  <rect x="1378" y="504" width="33" height="48" fill="#262640" />
  <rect x="1426" y="504" width="33" height="48" fill="#262640" />
  <rect x="1330" y="572" width="33" height="48" fill="#262640" />
  <rect x="1378" y="572" width="33" height="48" fill="#1e90ff" opacity="0.3" />
  <rect x="1426" y="572" width="33" height="48" fill="#262640" />
  <rect x="1330" y="640" width="33" height="48" fill="#262640" />
  <rect x="1378" y="640" width="33" height="48" fill="#262640" />
  <rect x="1426" y="640" width="33" height="48" fill="#1e90ff" opacity="0.4" />
  <rect x="1330" y="708" width="33" height="48" fill="#1e90ff" opacity="0.3" />
  <rect x="1378" y="708" width="33" height="48" fill="#262640" />
  <rect x="1426" y="708" width="33" height="48" fill="#262640" />
  
  <!-- Building 8 -->
  <rect x="1480" y="320" width="120" height="580" fill="#151529" />
  <rect x="1500" y="340" width="30" height="45" fill="#262640" />
  <rect x="1550" y="340" width="30" height="45" fill="#1e90ff" opacity="0.4" />
  <rect x="1500" y="405" width="30" height="45" fill="#1e90ff" opacity="0.3" />
  <rect x="1550" y="405" width="30" height="45" fill="#262640" />
  <rect x="1500" y="470" width="30" height="45" fill="#262640" />
  <rect x="1550" y="470" width="30" height="45" fill="#1e90ff" opacity="0.4" />
  <rect x="1500" y="535" width="30" height="45" fill="#262640" />
  <rect x="1550" y="535" width="30" height="45" fill="#262640" />
  <rect x="1500" y="600" width="30" height="45" fill="#1e90ff" opacity="0.3" />
  <rect x="1550" y="600" width="30" height="45" fill="#262640" />
  <rect x="1500" y="665" width="30" height="45" fill="#262640" />
  <rect x="1550" y="665" width="30" height="45" fill="#1e90ff" opacity="0.4" />
  <rect x="1500" y="730" width="30" height="45" fill="#262640" />
  <rect x="1550" y="730" width="30" height="45" fill="#262640" />
  
  <!-- Neon Signs -->
  
</svg>